<?xml version="1.0" encoding="UTF-8" standalone="no"?>
<svg
   viewBox="0 0 841.9 595.3"
   version="1.1"
   id="svg896"
   xmlns="http://www.w3.org/2000/svg"
   xmlnsSvg="http://www.w3.org/2000/svg">
  <defs
     id="defs900">
    <rect
       x="128.64534"
       y="55.494067"
       width="275.48103"
       height="283.86963"
       id="rect1079" />
    <rect
       x="153.86991"
       y="118.55551"
       width="582.6877"
       height="423.77287"
       id="rect1073" />
  </defs>
  <g
     aria-label="L"
     id="text1141"
     style="font-size:533.333px;font-family:Arial;-inkscape-font-specification:Arial;fill:#00ffff;stroke:#00ffff;stroke-width:3.77953;stroke-linecap:round;stroke-linejoin:round;paint-order:stroke fill markers">
    <path
       d="m 501.81313,306.73911 q 17.4479,0 32.81248,7.03125 15.62499,6.77083 27.34373,18.74999 11.71874,11.97916 18.22916,27.86456 6.77083,15.62499 6.77083,33.0729 0,23.43748 -9.89583,42.44789 -9.89583,19.0104 -26.04165,32.55206 -16.14583,13.54166 -36.97915,21.09374 -20.83332,7.55208 -42.7083,7.55208 -25.52082,0 -49.99997,-9.63541 -24.21874,-9.63541 -44.53123,-26.30207 -8.85416,19.79166 -27.86456,29.9479 -19.01041,10.15624 -39.84373,10.15624 h -0.52083 q -15.36457,0 -29.16665,-5.72916 -13.54166,-5.46875 -23.43748,-15.62499 -9.63542,-10.15624 -15.625,-23.6979 -5.72916,-13.54166 -5.72916,-29.16665 0,-13.80208 4.94792,-26.04165 4.94791,-12.23958 14.06249,-21.61457 9.11457,-9.375 21.35415,-14.58333 12.23958,-5.46874 26.8229,-5.46874 21.87499,0 41.40623,11.19791 V 195.80168 q 0,-25.2604 7.55207,-45.57289 7.55208,-20.5729 21.35416,-35.41664 13.80207,-15.104162 33.85414,-23.177073 20.05207,-8.072912 45.57289,-8.072912 51.30205,0 80.4687,25.781235 29.42707,25.52082 29.42707,69.27079 0,15.36457 -6.25,28.3854 -5.98958,12.76041 -16.40624,22.1354 -10.41666,9.11458 -24.99998,14.58333 -14.32291,5.20833 -31.24998,5.20833 -13.80208,0 -24.73957,-7.03125 -10.93749,-7.29166 -10.93749,-22.65623 0,-12.23958 8.85416,-21.09374 9.11457,-8.85416 22.39582,-8.85416 19.27082,0 27.86456,14.3229 4.16667,-4.16666 6.51042,-10.67707 2.60416,-6.77083 2.60416,-14.32291 0,-16.66666 -5.98958,-26.8229 -5.72916,-10.41666 -14.84374,-16.40624 -9.11458,-6.25 -20.5729,-8.33333 -11.45833,-2.34375 -22.13541,-2.34375 -8.59374,0 -19.27082,2.60417 -10.67708,2.34375 -20.31249,10.15624 -9.37499,7.55208 -15.8854,21.35416 -6.51042,13.80207 -6.51042,36.97914 v 162.4999 q 0,15.62499 -0.52083,28.64582 -0.52083,13.02082 -1.5625,23.6979 l -1.04166,-0.52083 q 17.18749,18.48957 37.76039,32.03123 20.83332,13.28124 47.65622,13.28124 13.28124,0 25.52082,-4.16667 12.23957,-4.42708 21.87498,-12.23957 9.63542,-8.07291 15.10416,-19.53124 5.72917,-11.45833 5.72917,-26.04165 0,-7.8125 -3.125,-15.88541 -2.86458,-8.07291 -7.8125,-14.32291 -4.94791,-6.51041 -11.97916,-10.67707 -7.03124,-4.42708 -15.36457,-4.42708 -11.71874,0 -22.91665,9.63541 6.24999,8.07291 6.24999,16.14582 0,11.19791 -9.11458,19.01041 -9.11457,7.55207 -21.87498,7.55207 -12.23958,0 -21.35416,-7.55207 -8.85416,-7.8125 -8.85416,-19.01041 l 0.52084,-1.82291 q 1.56249,-13.80208 8.33332,-25.78124 7.03125,-11.97916 17.44791,-20.83332 10.41666,-8.85416 23.6979,-13.80207 13.28124,-4.94792 27.86457,-4.94792 z M 309.10491,460.12443 q 9.11458,0 14.32291,-2.86458 5.46875,-2.86458 8.59375,-8.07291 3.38541,-5.46875 4.68749,-11.97916 1.30209,-6.77083 2.34375,-13.80207 l 1.04167,1.04166 q -7.03125,-7.55208 -17.44791,-15.62499 -10.15624,-8.33333 -20.83332,-8.33333 -10.67708,0.52084 -15.88541,9.11458 -4.94791,8.59375 -4.94791,17.44791 0,13.02082 7.03125,23.17707 7.29166,9.89582 21.09373,9.89582 z"
       style="font-family:Bartex;-inkscape-font-specification:Bartex"
       id="path1150" />
  </g>
</svg>
